<svg width="219" height="50" viewBox="0 0 219 50" fill="none" xmlns="http://www.w3.org/2000/svg">
<path d="M67.6754 16.2554C69.8354 12.8954 73.6354 11.2154 79.0754 11.2154V18.3554C78.4354 18.2354 77.8554 18.1754 77.3354 18.1754C74.4154 18.1754 72.1354 19.0354 70.4954 20.7554C68.8554 22.4354 68.0354 24.8754 68.0354 28.0754V43.6154H60.5354V11.5754H67.6754V16.2554ZM115.265 27.7754C115.265 28.2954 115.225 29.0354 115.145 29.9954H90.0047C90.4447 32.3554 91.5847 34.2354 93.4247 35.6354C95.3047 36.9954 97.6247 37.6754 100.385 37.6754C103.905 37.6754 106.805 36.5154 109.085 34.1954L113.105 38.8154C111.665 40.5354 109.845 41.8354 107.645 42.7154C105.445 43.5954 102.965 44.0354 100.205 44.0354C96.6847 44.0354 93.5847 43.3354 90.9047 41.9354C88.2247 40.5354 86.1447 38.5954 84.6647 36.1154C83.2247 33.5954 82.5047 30.7554 82.5047 27.5954C82.5047 24.4754 83.2047 21.6754 84.6047 19.1954C86.0447 16.6754 88.0247 14.7154 90.5447 13.3154C93.0647 11.9154 95.9047 11.2154 99.0647 11.2154C102.185 11.2154 104.965 11.9154 107.405 13.3154C109.885 14.6754 111.805 16.6154 113.165 19.1354C114.565 21.6154 115.265 24.4954 115.265 27.7754ZM99.0647 17.2154C96.6647 17.2154 94.6247 17.9354 92.9447 19.3754C91.3047 20.7754 90.3047 22.6554 89.9447 25.0154H108.125C107.805 22.6954 106.825 20.8154 105.185 19.3754C103.545 17.9354 101.505 17.2154 99.0647 17.2154ZM137.169 44.0354C133.849 44.0354 130.869 43.3354 128.229 41.9354C125.589 40.5354 123.529 38.5954 122.049 36.1154C120.569 33.5954 119.829 30.7554 119.829 27.5954C119.829 24.4354 120.569 21.6154 122.049 19.1354C123.529 16.6554 125.569 14.7154 128.169 13.3154C130.809 11.9154 133.809 11.2154 137.169 11.2154C140.329 11.2154 143.089 11.8554 145.449 13.1354C147.849 14.4154 149.649 16.2554 150.849 18.6554L145.089 22.0154C144.169 20.5354 143.009 19.4354 141.609 18.7154C140.249 17.9554 138.749 17.5754 137.109 17.5754C134.309 17.5754 131.989 18.4954 130.149 20.3354C128.309 22.1354 127.389 24.5554 127.389 27.5954C127.389 30.6354 128.289 33.0754 130.089 34.9154C131.929 36.7154 134.269 37.6154 137.109 37.6154C138.749 37.6154 140.249 37.2554 141.609 36.5354C143.009 35.7754 144.169 34.6554 145.089 33.1754L150.849 36.5354C149.609 38.9354 147.789 40.7954 145.389 42.1154C143.029 43.3954 140.289 44.0354 137.169 44.0354ZM188.352 11.5754V43.6154H181.212V39.5354C180.012 40.9754 178.512 42.0954 176.712 42.8954C174.912 43.6554 172.972 44.0354 170.892 44.0354C166.612 44.0354 163.232 42.8554 160.752 40.4954C158.312 38.0954 157.092 34.5554 157.092 29.8754V11.5754H164.592V28.8554C164.592 31.7354 165.232 33.8954 166.512 35.3354C167.832 36.7354 169.692 37.4354 172.092 37.4354C174.772 37.4354 176.892 36.6154 178.452 34.9754C180.052 33.2954 180.852 30.8954 180.852 27.7754V11.5754H188.352ZM205.312 16.2554C207.472 12.8954 211.272 11.2154 216.712 11.2154V18.3554C216.072 18.2354 215.492 18.1754 214.972 18.1754C212.052 18.1754 209.772 19.0354 208.132 20.7554C206.492 22.4354 205.672 24.8754 205.672 28.0754V43.6154H198.172V11.5754H205.312V16.2554Z" fill="black"/>
<rect x="2" y="2" width="46" height="46" rx="2" stroke="black" stroke-width="4" stroke-linecap="round" stroke-linejoin="round"/>
<rect width="25.4118" height="5" rx="2.5" transform="matrix(1 0 0 -1 17.5882 37)" fill="#C4C4C4"/>
<rect width="8.47059" height="5" rx="2.5" transform="matrix(1 0 0 -1 7 37)" fill="black"/>
<rect width="16.3636" height="5" rx="2.5" transform="matrix(1 0 0 -1 7 28.0001)" fill="#C4C4C4"/>
<rect width="9.81818" height="5" rx="2.5" transform="matrix(1 0 0 -1 25.0001 28.0001)" fill="black"/>
<rect width="6.54545" height="5" rx="2.5" transform="matrix(1 0 0 -1 36.4547 28.0001)" fill="#C4C4C4"/>
<rect width="22.9091" height="5" rx="2.5" transform="matrix(1 0 0 -1 7 19)" fill="#C4C4C4"/>
<rect width="11.4545" height="5" rx="2.5" transform="matrix(1 0 0 -1 31.5454 19)" fill="black"/>
</svg>
