<svg width="1020" height="239" viewBox="0 0 1020 239" fill="none" xmlns="http://www.w3.org/2000/svg">
<path d="M295.888 65.672C306.256 49.544 324.496 41.48 350.608 41.48V75.752C347.536 75.176 344.752 74.888 342.256 74.888C328.24 74.888 317.296 79.016 309.424 87.272C301.552 95.336 297.616 107.048 297.616 122.408V197H261.616V43.208H295.888V65.672ZM505.597 120.968C505.597 123.464 505.405 127.016 505.021 131.624H384.349C386.461 142.952 391.933 151.976 400.765 158.696C409.789 165.224 420.925 168.488 434.173 168.488C451.069 168.488 464.989 162.92 475.933 151.784L495.229 173.96C488.317 182.216 479.581 188.456 469.021 192.68C458.461 196.904 446.557 199.016 433.309 199.016C416.413 199.016 401.533 195.656 388.669 188.936C375.805 182.216 365.821 172.904 358.717 161C351.805 148.904 348.349 135.272 348.349 120.104C348.349 105.128 351.709 91.688 358.429 79.784C365.341 67.688 374.845 58.28 386.941 51.56C399.037 44.84 412.669 41.48 427.837 41.48C442.813 41.48 456.157 44.84 467.869 51.56C479.773 58.088 488.989 67.4 495.517 79.496C502.237 91.4 505.597 105.224 505.597 120.968ZM427.837 70.28C416.317 70.28 406.525 73.736 398.461 80.648C390.589 87.368 385.789 96.392 384.061 107.72H471.325C469.789 96.584 465.085 87.56 457.213 80.648C449.341 73.736 439.549 70.28 427.837 70.28ZM592.017 199.016C576.081 199.016 561.777 195.656 549.105 188.936C536.433 182.216 526.545 172.904 519.441 161C512.337 148.904 508.785 135.272 508.785 120.104C508.785 104.936 512.337 91.4 519.441 79.496C526.545 67.592 536.337 58.28 548.817 51.56C561.489 44.84 575.889 41.48 592.017 41.48C607.185 41.48 620.433 44.552 631.761 50.696C643.281 56.84 651.921 65.672 657.681 77.192L630.033 93.32C625.617 86.216 620.049 80.936 613.329 77.48C606.801 73.832 599.601 72.008 591.729 72.008C578.289 72.008 567.153 76.424 558.321 85.256C549.489 93.896 545.073 105.512 545.073 120.104C545.073 134.696 549.393 146.408 558.033 155.24C566.865 163.88 578.097 168.2 591.729 168.2C599.601 168.2 606.801 166.472 613.329 163.016C620.049 159.368 625.617 153.992 630.033 146.888L657.681 163.016C651.729 174.536 642.993 183.464 631.473 189.8C620.145 195.944 606.993 199.016 592.017 199.016ZM818.977 43.208V197H784.705V177.416C778.945 184.328 771.745 189.704 763.105 193.544C754.465 197.192 745.153 199.016 735.169 199.016C714.625 199.016 698.401 193.352 686.497 182.024C674.785 170.504 668.929 153.512 668.929 131.048V43.208H704.929V126.152C704.929 139.976 708.001 150.344 714.145 157.256C720.481 163.976 729.409 167.336 740.929 167.336C753.793 167.336 763.969 163.4 771.457 155.528C779.137 147.464 782.977 135.944 782.977 120.968V43.208H818.977ZM864.384 65.672C874.752 49.544 892.992 41.48 919.104 41.48V75.752C916.032 75.176 913.248 74.888 910.752 74.888C896.736 74.888 885.792 79.016 877.92 87.272C870.048 95.336 866.112 107.048 866.112 122.408V197H830.112V43.208H864.384V65.672Z" fill="black"/>
<rect width="128.595" height="23.814" rx="11.907" transform="matrix(1 0 0 -1 80.9675 176.223)" fill="#C4C4C4"/>
<rect width="42.8651" height="23.814" rx="11.907" transform="matrix(1 0 0 -1 28.5767 176.223)" fill="black"/>
<rect width="71.4419" height="23.814" rx="11.907" transform="matrix(1 0 0 -1 28.5767 133.358)" fill="#C4C4C4"/>
<rect width="47.6279" height="23.814" rx="11.907" transform="matrix(1 0 0 -1 109.544 133.358)" fill="black"/>
<rect width="42.8651" height="23.814" rx="11.907" transform="matrix(1 0 0 -1 166.698 133.358)" fill="#C4C4C4"/>
<rect width="104.781" height="23.814" rx="11.907" transform="matrix(1 0 0 -1 28.5767 90.493)" fill="#C4C4C4"/>
<rect width="66.6791" height="23.814" rx="11.907" transform="matrix(1 0 0 -1 142.884 90.493)" fill="black"/>
<mask id="path-9-inside-1" fill="white">
<rect width="238.14" height="238.14" rx="15"/>
</mask>
<rect width="238.14" height="238.14" rx="15" stroke="black" stroke-width="40" stroke-linecap="round" stroke-linejoin="round" mask="url(#path-9-inside-1)"/>
</svg>
